<svg width="2662" height="1214" xmlns="http://www.w3.org/2000/svg" xmlns:xlink="http://www.w3.org/1999/xlink" xml:space="preserve" overflow="hidden"><g><g><rect x="0" y="0" width="2660" height="1188" fill="#222832" fill-opacity="1"/><rect x="602" y="949" width="1174" height="200" fill="#222832" fill-opacity="1"/><text fill="#D9D9D9" fill-opacity="1" font-family="Avenir Book,Avenir Book_MSFontService,sans-serif" font-style="normal" font-variant="normal" font-weight="400" font-stretch="normal" font-size="138" text-anchor="start" direction="ltr" writing-mode="lr-tb" unicode-bidi="normal" text-decoration="none" transform="matrix(1 0 0 1 852.403 1091)">amino acid</text><path d="M0 0 0.000360892 384.964" stroke="#D9D9D9" stroke-width="6.875" stroke-linecap="butt" stroke-linejoin="miter" stroke-miterlimit="8" stroke-opacity="1" fill="none" fill-rule="evenodd" transform="matrix(1 0 0 -1 552.5 637.464)"/><path d="M162.5 594.5 2498.8 594.5" stroke="#D9D9D9" stroke-width="6.875" stroke-linecap="butt" stroke-linejoin="miter" stroke-miterlimit="8" stroke-opacity="1" fill="none" fill-rule="evenodd"/><rect x="44" y="451" width="260" height="248" fill="#222832" fill-opacity="1"/><text fill="#D9D9D9" fill-opacity="1" font-family="Avenir Book,Avenir Book_MSFontService,sans-serif" font-style="normal" font-variant="normal" font-weight="400" font-stretch="normal" font-size="177" text-anchor="start" direction="ltr" writing-mode="lr-tb" unicode-bidi="normal" text-decoration="none" transform="matrix(1 0 0 1 121.61 628)">R</text><path d="M0 0 0.000360892 384.964" stroke="#D9D9D9" stroke-width="6.875" stroke-linecap="butt" stroke-linejoin="miter" stroke-miterlimit="8" stroke-opacity="1" fill="none" fill-rule="evenodd" transform="matrix(1 0 0 -1 912.5 638.464)"/><rect x="410" y="451" width="283" height="248" fill="#222832" fill-opacity="1"/><text fill="#D9D9D9" fill-opacity="1" font-family="Avenir Book,Avenir Book_MSFontService,sans-serif" font-style="normal" font-variant="normal" font-weight="400" font-stretch="normal" font-size="177" text-anchor="start" direction="ltr" writing-mode="lr-tb" unicode-bidi="normal" text-decoration="none" transform="matrix(1 0 0 1 482.901 628)">N</text><path d="M0 0 0.000360892 384.964" stroke="#D9D9D9" stroke-width="6.875" stroke-linecap="butt" stroke-linejoin="miter" stroke-miterlimit="8" stroke-opacity="1" fill="none" fill-rule="evenodd" transform="matrix(1 0 0 -1 970.5 672.464)"/><path d="M0 0 0.000360892 384.964" stroke="#D9D9D9" stroke-width="6.875" stroke-linecap="butt" stroke-linejoin="miter" stroke-miterlimit="8" stroke-opacity="1" fill="none" fill-rule="evenodd" transform="matrix(1 0 0 -1 1327.5 635.464)"/><rect x="1103" y="43" width="475" height="248" fill="#222832" fill-opacity="1"/><text fill="#D9D9D9" fill-opacity="1" font-family="Avenir Book,Avenir Book_MSFontService,sans-serif" font-style="normal" font-variant="normal" font-weight="400" font-stretch="normal" font-size="177" text-anchor="start" direction="ltr" writing-mode="lr-tb" unicode-bidi="normal" text-decoration="none" transform="matrix(1 0 0 1 1182.22 220)">CH</text><text fill="#D9D9D9" fill-opacity="1" font-family="Avenir Book,Avenir Book_MSFontService,sans-serif" font-style="normal" font-variant="normal" font-weight="400" font-stretch="normal" font-size="118" text-anchor="start" direction="ltr" writing-mode="lr-tb" unicode-bidi="normal" text-decoration="none" transform="matrix(1 0 0 1 1434.31 263)">3</text><path d="M0 0 0.000360892 384.964" stroke="#D9D9D9" stroke-width="6.875" stroke-linecap="butt" stroke-linejoin="miter" stroke-miterlimit="8" stroke-opacity="1" fill="none" fill-rule="evenodd" transform="matrix(1 0 0 -1 1718.5 1020.46)"/><rect x="800" y="47.0001" width="282" height="247" fill="#222832" fill-opacity="1"/><text fill="#D9D9D9" fill-opacity="1" font-family="Avenir Book,Avenir Book_MSFontService,sans-serif" font-style="normal" font-variant="normal" font-weight="400" font-stretch="normal" font-size="177" text-anchor="start" direction="ltr" writing-mode="lr-tb" unicode-bidi="normal" text-decoration="none" transform="matrix(1 0 0 1 867.415 223)">O</text><path d="M0 0 0.000360892 384.964" stroke="#D9D9D9" stroke-width="6.875" stroke-linecap="butt" stroke-linejoin="miter" stroke-miterlimit="8" stroke-opacity="1" fill="none" fill-rule="evenodd" transform="matrix(1 0 0 -1 2082.5 634.464)"/><path d="M0 0 0.000360892 384.964" stroke="#D9D9D9" stroke-width="6.875" stroke-linecap="butt" stroke-linejoin="miter" stroke-miterlimit="8" stroke-opacity="1" fill="none" fill-rule="evenodd" transform="matrix(1 0 0 -1 2139.5 674.464)"/><rect x="1969" y="43" width="283" height="248" fill="#222832" fill-opacity="1"/><text fill="#D9D9D9" fill-opacity="1" font-family="Avenir Book,Avenir Book_MSFontService,sans-serif" font-style="normal" font-variant="normal" font-weight="400" font-stretch="normal" font-size="177" text-anchor="start" direction="ltr" writing-mode="lr-tb" unicode-bidi="normal" text-decoration="none" transform="matrix(1 0 0 1 2036.51 220)">O</text><rect x="800" y="451" width="282" height="248" fill="#222832" fill-opacity="1"/><text fill="#D9D9D9" fill-opacity="1" font-family="Avenir Book,Avenir Book_MSFontService,sans-serif" font-style="normal" font-variant="normal" font-weight="400" font-stretch="normal" font-size="177" text-anchor="start" direction="ltr" writing-mode="lr-tb" unicode-bidi="normal" text-decoration="none" transform="matrix(1 0 0 1 878.874 628)">C</text><rect x="1189" y="451" width="283" height="248" fill="#222832" fill-opacity="1"/><text fill="#D9D9D9" fill-opacity="1" font-family="Avenir Book,Avenir Book_MSFontService,sans-serif" font-style="normal" font-variant="normal" font-weight="400" font-stretch="normal" font-size="177" text-anchor="start" direction="ltr" writing-mode="lr-tb" unicode-bidi="normal" text-decoration="none" transform="matrix(1 0 0 1 1268.26 628)">C</text><rect x="1578" y="451" width="283" height="248" fill="#222832" fill-opacity="1"/><text fill="#D9D9D9" fill-opacity="1" font-family="Avenir Book,Avenir Book_MSFontService,sans-serif" font-style="normal" font-variant="normal" font-weight="400" font-stretch="normal" font-size="177" text-anchor="start" direction="ltr" writing-mode="lr-tb" unicode-bidi="normal" text-decoration="none" transform="matrix(1 0 0 1 1651.05 628)">N</text><rect x="1968" y="451" width="283" height="248" fill="#222832" fill-opacity="1"/><text fill="#D9D9D9" fill-opacity="1" font-family="Avenir Book,Avenir Book_MSFontService,sans-serif" font-style="normal" font-variant="normal" font-weight="400" font-stretch="normal" font-size="177" text-anchor="start" direction="ltr" writing-mode="lr-tb" unicode-bidi="normal" text-decoration="none" transform="matrix(1 0 0 1 2047.03 628)">C</text><rect x="2357" y="451" width="283" height="248" fill="#222832" fill-opacity="1"/><text fill="#D9D9D9" fill-opacity="1" font-family="Avenir Book,Avenir Book_MSFontService,sans-serif" font-style="normal" font-variant="normal" font-weight="400" font-stretch="normal" font-size="177" text-anchor="start" direction="ltr" writing-mode="lr-tb" unicode-bidi="normal" text-decoration="none" transform="matrix(1 0 0 1 2446.15 628)">R</text><rect x="411" y="46.0001" width="283" height="248" fill="#222832" fill-opacity="1"/><text fill="#D9D9D9" fill-opacity="1" font-family="Avenir Book,Avenir Book_MSFontService,sans-serif" font-style="normal" font-variant="normal" font-weight="400" font-stretch="normal" font-size="177" text-anchor="start" direction="ltr" writing-mode="lr-tb" unicode-bidi="normal" text-decoration="none" transform="matrix(1 0 0 1 488.682 223)">H</text><rect x="1578" y="852" width="283" height="248" fill="#222832" fill-opacity="1"/><text fill="#D9D9D9" fill-opacity="1" font-family="Avenir Book,Avenir Book_MSFontService,sans-serif" font-style="normal" font-variant="normal" font-weight="400" font-stretch="normal" font-size="177" text-anchor="start" direction="ltr" writing-mode="lr-tb" unicode-bidi="normal" text-decoration="none" transform="matrix(1 0 0 1 1655.92 1029)">H</text><path d="M1081.5 357.5 1201.16 861.822" stroke="#E97132" stroke-width="9.16667" stroke-linecap="butt" stroke-linejoin="miter" stroke-miterlimit="8" stroke-opacity="1" fill="none" fill-rule="evenodd"/><rect x="800" y="11" width="1022" height="1167" fill="#0BADEE" fill-opacity="0.2"/></g></g></svg>